<svg width="32" height="32" viewBox="0 0 32 32" fill="none" xmlns="http://www.w3.org/2000/svg">
<path d="M14.3679 17.3473L14.3819 17.344V17.3473H27.6393V17.3433L27.6539 17.3473L30.5139 6.67733H11.5093L14.3679 17.3473Z" fill="#CDCACA"/>
<path d="M12.4307 20L7.47333 1.80467H0V4.5H5.444L10.3933 22.6667L10.4093 22.662V22.6667H32V20H12.4307Z" fill="#CDCACA"/>
<path d="M27.8473 29.3333C29.3201 29.3333 30.514 28.1394 30.514 26.6667C30.514 25.1939 29.3201 24 27.8473 24C26.3746 24 25.1807 25.1939 25.1807 26.6667C25.1807 28.1394 26.3746 29.3333 27.8473 29.3333Z" fill="#CDCACA"/>
<path d="M13.076 29.3333C14.5487 29.3333 15.7426 28.1394 15.7426 26.6667C15.7426 25.1939 14.5487 24 13.076 24C11.6032 24 10.4093 25.1939 10.4093 26.6667C10.4093 28.1394 11.6032 29.3333 13.076 29.3333Z" fill="#CDCACA"/>
</svg>
