<svg width="38" height="38" viewBox="0 0 38 38" fill="none" xmlns="http://www.w3.org/2000/svg">
<path d="M34.96 16.2857H33.363C33.4115 15.8362 33.44 15.3866 33.44 14.9286C33.44 14.4705 33.4115 14.021 33.364 13.5714H34.96C36.6386 13.5714 38 12.3576 38 10.8571C38 9.35665 36.6386 8.14286 34.96 8.14286H31.5942C28.8202 3.31737 23.2038 0 16.7267 0H6.08C4.40135 0 3.04 1.21379 3.04 2.71429V8.14286C1.36135 8.14286 0 9.3558 0 10.8571C0 12.3585 1.36325 13.5714 3.0419 13.5714L3.04 16.2857C1.36135 16.2857 0 17.4987 0 19C0 20.5013 1.36135 21.7143 3.04 21.7143V35.2857C3.04 36.7862 4.40135 38 6.08 38C7.75865 38 9.12 36.7862 9.12 35.2857V29.8571H16.7228C23.2037 29.8571 28.8163 26.5398 31.5903 21.7143H34.96C36.6386 21.7143 38 20.5005 38 19C38 17.4995 36.6415 16.2857 34.96 16.2857ZM9.12 5.42857H16.72C19.608 5.42857 22.2234 6.46933 24.1424 8.14286H9.12V5.42857ZM9.12 13.5714H27.208C27.2745 14.021 27.36 14.4621 27.36 14.9286C27.36 15.3951 27.2745 15.8362 27.208 16.2857H9.12V13.5714ZM16.72 24.4286H9.12V21.7143H24.1395C22.2205 23.3853 19.608 24.4286 16.72 24.4286Z" fill="black"/>
</svg>
