<svg width="49" height="47" viewBox="0 0 49 47" fill="none" xmlns="http://www.w3.org/2000/svg">
<path d="M38.4895 24.6371C38.4895 24.0685 38.4895 23.4763 38.4895 22.9078C38.5108 20.1397 38.2978 17.3746 37.8525 14.6401C37.6989 13.8587 37.3383 13.1292 36.8057 12.523C36.2732 11.9167 35.5871 11.4545 34.8145 11.1815C30.9384 10.6231 27.0219 10.3696 23.1035 10.4234C19.1697 10.3714 15.2377 10.6169 11.3435 11.1578C10.5935 11.4574 9.93231 11.9325 9.41915 12.5403C8.906 13.1481 8.557 13.8697 8.40348 14.6401C7.98031 17.3608 7.77553 20.1091 7.79098 22.8604C7.77544 25.6274 7.98021 28.3914 8.40348 31.128C8.57017 31.9043 8.93563 32.6276 9.4664 33.2319C9.99716 33.8362 10.6763 34.302 11.4415 34.5867C15.3258 35.1452 19.2504 35.3987 23.177 35.3448C27.1108 35.3955 31.0426 35.15 34.937 34.6104C35.6961 34.3171 36.3672 33.8448 36.8893 33.2366C37.4113 32.6283 37.7677 31.9035 37.926 31.128C38.2485 28.9932 38.4366 26.8414 38.4895 24.6845V24.6371ZM9.79998 14.8533C9.89384 14.3005 10.129 13.7791 10.4841 13.3365C10.8392 12.8938 11.303 12.5439 11.8335 12.3186C15.5902 11.8043 19.3836 11.5825 23.177 11.6552C26.9551 11.5778 30.7332 11.8076 34.4715 12.3422C35.0471 12.5284 35.5613 12.859 35.9616 13.3001C36.3619 13.7413 36.6339 14.2773 36.75 14.8533C37.1789 17.5175 37.3756 20.2118 37.338 22.9078C37.338 23.2868 37.338 23.6658 37.338 24.0449H9.13848C9.13848 23.6421 9.13848 23.2631 9.13848 22.8604C9.14963 20.179 9.37077 17.5024 9.79998 14.8533ZM36.9705 29.067H9.48148C9.33448 27.8115 9.23648 26.5323 9.18748 25.2767H37.1665C37.1175 26.5796 37.0195 27.8352 36.8725 29.0907L36.9705 29.067ZM34.5205 33.4022C30.7719 33.9157 26.9868 34.1375 23.2015 34.0655C19.4237 34.1311 15.6465 33.9014 11.907 33.3785C11.3701 33.1875 10.8902 32.8713 10.5099 32.4581C10.1296 32.0449 9.86048 31.5474 9.72648 31.0096V30.441H36.75V31.0096C36.6163 31.5638 36.3395 32.0762 35.9453 32.4988C35.551 32.9214 35.0524 33.2404 34.496 33.4259L34.5205 33.4022Z" fill="#CDCACA"/>
<path d="M30.429 27.8589H33.2955C33.392 27.8589 33.4876 27.8405 33.5767 27.8048C33.6659 27.7691 33.7469 27.7167 33.8152 27.6507C33.8834 27.5847 33.9376 27.5064 33.9745 27.4201C34.0115 27.3339 34.0305 27.2415 34.0305 27.1482C34.0339 27.054 34.0172 26.9601 33.9815 26.8723C33.9458 26.7846 33.8918 26.705 33.8228 26.6383C33.7539 26.5716 33.6715 26.5194 33.5807 26.4849C33.49 26.4503 33.3929 26.4342 33.2955 26.4375H30.429C30.234 26.4375 30.0471 26.5124 29.9092 26.6457C29.7714 26.7789 29.694 26.9597 29.694 27.1482C29.7001 27.3348 29.7795 27.5121 29.916 27.6441C30.0526 27.7762 30.236 27.8529 30.429 27.8589Z" fill="#CDCACA"/>
<path d="M30.38 19.686H33.663C33.8426 19.6576 34.0056 19.5679 34.1225 19.4331C34.2394 19.2984 34.3024 19.1275 34.3 18.9516C34.3 18.8583 34.281 18.7659 34.2441 18.6796C34.2071 18.5934 34.153 18.5151 34.0847 18.4491C34.0165 18.3831 33.9355 18.3307 33.8463 18.295C33.7571 18.2593 33.6615 18.2409 33.565 18.2409H30.38C30.1851 18.2409 29.9981 18.3158 29.8603 18.4491C29.7225 18.5824 29.645 18.7631 29.645 18.9516C29.6449 19.1423 29.7216 19.3256 29.8587 19.4627C29.9959 19.5998 30.1829 19.6798 30.38 19.686Z" fill="#CDCACA"/>
<path d="M24.6715 19.686H27.93C28.0265 19.686 28.1221 19.6676 28.2112 19.6319C28.3004 19.5962 28.3814 19.5438 28.4497 19.4778C28.5179 19.4118 28.5721 19.3335 28.609 19.2473C28.646 19.161 28.665 19.0686 28.665 18.9753C28.6684 18.8811 28.6517 18.7872 28.616 18.6995C28.5803 18.6117 28.5263 18.5321 28.4573 18.4654C28.3884 18.3987 28.306 18.3465 28.2152 18.312C28.1245 18.2774 28.0274 18.2613 27.93 18.2646H24.6715C24.574 18.2613 24.4769 18.2774 24.3862 18.312C24.2955 18.3465 24.2131 18.3987 24.1441 18.4654C24.0752 18.5321 24.0212 18.6117 23.9854 18.6995C23.9497 18.7872 23.9331 18.8811 23.9365 18.9753C23.9365 19.0686 23.9555 19.161 23.9924 19.2473C24.0294 19.3335 24.0835 19.4118 24.1517 19.4778C24.22 19.5438 24.301 19.5962 24.3902 19.6319C24.4794 19.6676 24.5749 19.686 24.6715 19.686Z" fill="#CDCACA"/>
<path d="M18.9385 19.686H22.2215C22.4145 19.6801 22.5979 19.6033 22.7344 19.4713C22.871 19.3392 22.9504 19.1619 22.9565 18.9753C22.9565 18.7868 22.8791 18.6061 22.7412 18.4728C22.6034 18.3395 22.4164 18.2646 22.2215 18.2646H18.9385C18.7436 18.2646 18.5566 18.3395 18.4188 18.4728C18.2809 18.6061 18.2035 18.7868 18.2035 18.9753C18.2096 19.1619 18.289 19.3392 18.4256 19.4713C18.5621 19.6033 18.7455 19.6801 18.9385 19.686Z" fill="#CDCACA"/>
<path d="M13.2299 19.686H16.4884C16.6747 19.668 16.8468 19.582 16.9697 19.4456C17.0927 19.3091 17.1571 19.1324 17.1499 18.9516C17.1534 18.8574 17.1367 18.7635 17.101 18.6758C17.0652 18.5881 17.0112 18.5084 16.9423 18.4417C16.8733 18.3751 16.7909 18.3228 16.7002 18.2883C16.6095 18.2537 16.5124 18.2376 16.4149 18.2409H13.2299C13.1325 18.2376 13.0354 18.2537 12.9447 18.2883C12.854 18.3228 12.7716 18.3751 12.7026 18.4417C12.6337 18.5084 12.5796 18.5881 12.5439 18.6758C12.5082 18.7635 12.4915 18.8574 12.4949 18.9516C12.4917 19.0469 12.5082 19.1419 12.5437 19.2309C12.5792 19.3198 12.6328 19.401 12.7014 19.4695C12.7699 19.538 12.8521 19.5925 12.9429 19.6297C13.0337 19.6669 13.1313 19.686 13.2299 19.686Z" fill="#CDCACA"/>
</svg>
