<svg width="49" height="49" viewBox="0 0 49 49" fill="none" xmlns="http://www.w3.org/2000/svg">
<g clip-path="url(#clip0_289_30)">
<path fill-rule="evenodd" clip-rule="evenodd" d="M49 24.5C49 38.031 38.031 49 24.5 49C10.969 49 0 38.031 0 24.5C0 10.969 10.969 0 24.5 0C38.031 0 49 10.969 49 24.5ZM27.1249 11.375C27.1249 9.92526 25.9496 8.75 24.4999 8.75C23.0502 8.75 21.8749 9.92526 21.8749 11.375V13.1617C18.5961 13.5097 16.0417 16.2842 16.0417 19.6552C16.0417 22.7241 18.1785 25.3789 21.1765 26.0346L26.3323 27.1625C27.1348 27.338 27.7083 28.05 27.7083 28.8733C27.7083 29.841 26.9235 30.6249 25.9583 30.6249H23.0417C22.2838 30.6249 21.6321 30.1417 21.3906 29.4585C20.9075 28.0916 19.4077 27.3752 18.0409 27.8583C16.674 28.3414 15.9576 29.8411 16.4407 31.208C17.2753 33.5695 19.3427 35.3535 21.8749 35.778V37.625C21.8749 39.0747 23.0502 40.25 24.4999 40.25C25.9496 40.25 27.1249 39.0747 27.1249 37.625V35.778C30.4365 35.2222 32.9583 32.3408 32.9583 28.8733C32.9583 25.5847 30.6687 22.7369 27.4542 22.0338L22.2984 20.9059C21.7106 20.7773 21.2917 20.2569 21.2917 19.6552C21.2917 18.9482 21.8649 18.375 22.572 18.375H25.9583C26.4763 18.375 26.9391 18.5968 27.2633 18.959C27.4156 19.1291 27.5336 19.3268 27.6094 19.5414C28.0925 20.9083 29.5923 21.6247 30.9591 21.1416C32.326 20.6585 33.0424 19.1588 32.5593 17.7919C32.251 16.9197 31.7763 16.1292 31.1753 15.4577C30.1422 14.3034 28.7252 13.491 27.1249 13.222V11.375Z" fill="white"/>
</g>
<defs>
<clipPath id="clip0_289_30">
<rect width="49" height="49" fill="white"/>
</clipPath>
</defs>
</svg>
