<svg width="32" height="32" viewBox="0 0 32 32" fill="none" xmlns="http://www.w3.org/2000/svg">
<path d="M6.66671 24H4.00004C2.53337 24 1.33337 25.2 1.33337 26.6667C1.33337 28.1333 2.53337 29.3333 4.00004 29.3333H6.66671C8.13337 29.3333 9.33337 28.1333 9.33337 26.6667C9.33337 25.2 8.13337 24 6.66671 24Z" fill="#CDCACA"/>
<path d="M17.3333 21.3333H14.6667C13.2 21.3333 12 22.5333 12 24V26.6667C12 28.1333 13.2 29.3333 14.6667 29.3333H17.3333C18.8 29.3333 20 28.1333 20 26.6667V24C20 22.5333 18.8 21.3333 17.3333 21.3333Z" fill="#CDCACA"/>
<path d="M28.0001 16H25.3334C23.8667 16 22.6667 17.2 22.6667 18.6667V26.6667C22.6667 28.1333 23.8667 29.3333 25.3334 29.3333H28.0001C29.4667 29.3333 30.6667 28.1333 30.6667 26.6667V18.6667C30.6667 17.2 29.4667 16 28.0001 16Z" fill="#CDCACA"/>
<path d="M29.3334 2.66667H20.5334C19.3334 2.66667 18.8 4.13334 19.6 4.93334L22.1334 7.46667C17.2 13.0667 10.1334 17.3333 2.66671 17.3333C1.86671 17.3333 1.33337 17.8667 1.33337 18.6667C1.33337 19.4667 1.86671 20 2.66671 20C11.6 20 19.8667 17.4667 25.8667 11.2L28.2667 13.6C29.0667 14.4 30.5334 13.8667 30.5334 12.6667V4.00001C30.6667 3.20001 30.1334 2.66667 29.3334 2.66667Z" fill="#CDCACA"/>
</svg>
